<svg width="32" height="32" viewBox="0 0 32 32" fill="none" xmlns="http://www.w3.org/2000/svg">
  <defs>
    <linearGradient id="grad" x1="0%" y1="0%" x2="100%" y2="100%">
      <stop offset="0%" style="stop-color:#FFD54F;stop-opacity:1" />
      <stop offset="50%" style="stop-color:#FF9800;stop-opacity:1" />
      <stop offset="100%" style="stop-color:#9C27B0;stop-opacity:1" />
    </linearGradient>
  </defs>
  <rect width="32" height="32" rx="8" fill="url(#grad)"/>
  <path d="M16 11V23M16 11C14.5 9.5 11.5 9.5 9 9.5C8 9.5 7 9.5 7 10.5V21.5C7 22.5 8 22.5 9 22.5C11.5 22.5 14.5 22.5 16 23M16 11C17.5 9.5 20.5 9.5 23 9.5C24 9.5 25 9.5 25 10.5V21.5C25 22.5 24 22.5 23 22.5C20.5 22.5 17.5 22.5 16 23" stroke="white" stroke-width="2" stroke-linecap="round" stroke-linejoin="round"/>
</svg>
